# xmcd CD database file
#
# Track frame offsets:
#	150
#	22998
#	45727
#	69055
#	92672
#	96771
#	101019
#	105159
#
# Disc length: 1454 seconds
#
# Revision: 0
# Processed by: cddbd v1.5.2PL0 Copyright (c) Steve Scherf et al.
# Submitted via: CDex 1.70beta3
#
DISCID=5105ac08
DTITLE=苫米地英人 - 《薔薇色脳》 聴くだけで人生を変える 特殊音源付録CD
DYEAR=2011
DGENRE=New Age
TTITLE0=BHD (ダイエットに効く、理想の体型になれる)
TTITLE1=Wanna be RcH (自然にお金持ちになれる)
TTITLE2=Hold V (嫌な気分を取り去る、前向きになれる、モテる、悲しい気持ちを和らげる)
TTITLE3=wake form (快眠、美肌、気分が落ち着く、リラックスする)
TTITLE4=[着うた用] ダイエットに効く、理想の体型になれる
TTITLE5=[着うた用] 自然にお金持ちになれる
TTITLE6=[着うた用] 嫌な気分を取り去る、リラックスできる
TTITLE7=[着うた用] 人気者になれる、前向きになれる
EXTD=YEAR: 2011
EXTT0=
EXTT1=
EXTT2=
EXTT3=
EXTT4=
EXTT5=
EXTT6=
EXTT7=
PLAYORDER=
